<?xml version="1.0" encoding="UTF-8"?> <svg xmlns="http://www.w3.org/2000/svg" width="164" height="32" viewBox="0 0 164 32" fill="none"><path d="M25.327 31.3871H6.78869C3.05531 31.3871 0 28.4011 0 24.7524V6.63469C0 2.986 3.05531 0 6.78869 0H25.327C29.0604 0 32.1157 2.986 32.1157 6.63469V24.7524C32.1157 28.4011 29.0604 31.3871 25.327 31.3871Z" fill="#FF2B85"></path><path d="M26.337 12.4282C26.3354 12.4204 26.3322 12.4142 26.329 12.4049C26.1416 12.02 26.4195 11.7345 26.4195 11.7345H26.4179C26.4846 11.6584 26.5466 11.5793 26.6053 11.497C27.2897 10.5627 27.4867 9.30096 27.0944 8.17578C26.9991 7.90108 26.3195 8.02368 26.1607 7.77226C26.0924 7.66362 26.1194 7.48825 26.1543 7.30512C26.1654 7.25545 26.175 7.20579 26.1829 7.15613C26.2179 6.96213 26.2369 6.779 26.1353 6.68122C26.0336 6.585 25.9272 6.49344 25.8129 6.40652L25.7446 6.35376C24.9951 5.7997 24.0471 5.54363 23.1038 5.58863C22.2796 5.62898 21.403 5.89127 20.7758 6.43601L20.7742 6.43446C20.7742 6.43446 20.3184 6.78676 19.7166 6.59587C19.7007 6.59121 19.6832 6.58655 19.6674 6.5819C19.029 6.36617 18.3747 6.1939 17.7046 6.09302C17.1599 6.01232 16.6089 5.97042 16.0578 5.97042C14.7843 5.97042 13.5599 6.1877 12.4166 6.5819C12.3991 6.58655 12.3832 6.59121 12.3657 6.59587C11.7496 6.78986 11.351 6.44222 11.351 6.44222C10.168 5.42102 7.7939 5.17115 6.24083 6.45308C4.54168 7.85452 4.44799 10.2973 5.7025 11.736H5.70092C5.70092 11.736 5.97723 12.0216 5.79143 12.4065V12.408C5.05778 13.8808 4.6449 15.512 4.6449 17.1927C4.6449 23.1197 9.75507 27.4342 16.0594 27.4342C22.3638 27.4342 27.474 23.1197 27.474 17.1927C27.4724 15.5182 27.0627 13.8964 26.337 12.4282ZM15.9816 16.6449C16.8868 16.6449 17.6204 16.8373 17.6204 17.1788C17.6204 17.5202 16.8868 18.2915 15.9816 18.2915C15.0765 18.2915 14.3428 17.5202 14.3428 17.1788C14.3412 16.8373 15.0765 16.6449 15.9816 16.6449ZM6.81887 10.3998C6.7617 10.361 6.71723 10.3082 6.67912 10.2523C6.66324 10.2275 6.64736 10.2027 6.63307 10.1763C6.35835 9.69206 6.29324 9.09765 6.45521 8.56843C6.77758 7.51619 7.91776 6.90316 9.00554 7.04283C9.29138 7.08008 9.56928 7.16544 9.82177 7.30357C9.92499 7.35944 10.0203 7.43083 10.1028 7.51308C10.1346 7.54567 10.1664 7.58137 10.1775 7.62482C10.1949 7.68846 10.1664 7.75829 10.1203 7.80796C10.0758 7.85762 10.0155 7.89176 9.95675 7.92436C8.91661 8.52187 8.06386 9.377 7.2778 10.2601C7.15235 10.4013 7.01419 10.5332 6.81887 10.3998ZM9.60263 18.8254C8.65777 18.7199 7.83677 17.7437 7.52553 16.7629C7.38896 16.3299 7.06024 14.3371 8.52438 12.8953C9.0103 12.4158 9.69314 11.9967 10.6475 11.7174C10.6475 11.7174 11.062 11.6072 11.5908 11.6025C12.0624 11.5979 12.6262 11.6786 13.0724 11.9967C14.0173 12.6734 14.03 13.8141 13.471 14.3976C12.912 14.9812 11.6432 16.3205 11.3193 17.4162C10.9953 18.5119 10.5475 18.931 9.60263 18.8254ZM15.9943 22.1187C15.9896 22.1187 15.9848 22.1187 15.98 22.1187C15.9753 22.1187 15.9705 22.1187 15.9657 22.1187C14.1459 22.1079 12.6754 20.8508 12.6754 19.589C12.6754 19.1529 12.8707 18.9279 13.3567 19.0474C13.6377 19.1156 14.7922 19.4012 15.845 19.4059C15.8927 19.4059 15.9562 19.4059 15.9768 19.4059C15.9768 19.4059 15.9784 19.4059 15.98 19.4059C15.9816 19.4059 15.9832 19.4059 15.9832 19.4059C16.0038 19.4059 16.0674 19.4059 16.115 19.4059C17.1663 19.4012 18.3223 19.1156 18.6034 19.0474C19.0893 18.9294 19.2846 19.1529 19.2846 19.589C19.2846 20.8508 17.8142 22.1079 15.9943 22.1187ZM24.4361 16.7504C24.1265 17.7328 23.3055 18.709 22.359 18.813C21.4142 18.9185 20.9663 18.498 20.6424 17.4023C20.32 16.3066 19.0512 14.9657 18.4907 14.3837C17.9317 13.8017 17.9428 12.6594 18.8892 11.9828C19.3339 11.6646 19.8976 11.5839 20.3708 11.5886C20.9012 11.5932 21.3141 11.7034 21.3141 11.7034C22.2669 11.9843 22.9513 12.4034 23.4373 12.8814C24.9014 14.3247 24.5727 16.3174 24.4361 16.7504ZM25.4842 10.1747C25.4699 10.2011 25.454 10.2259 25.4381 10.2508C25.4 10.3082 25.3556 10.3594 25.2984 10.3982C25.1031 10.5317 24.9649 10.3998 24.8395 10.257C24.0534 9.3739 23.2007 8.51876 22.1605 7.92125C22.1018 7.88711 22.0414 7.85452 21.997 7.80485C21.9525 7.75519 21.9223 7.68535 21.9398 7.62172C21.9509 7.57826 21.9827 7.54257 22.0144 7.50998C22.097 7.42772 22.1923 7.35633 22.2955 7.30046C22.548 7.16389 22.8275 7.07698 23.1117 7.03973C24.1995 6.8985 25.3397 7.51308 25.6621 8.56532C25.824 9.09765 25.7573 9.6905 25.4842 10.1747Z" fill="white"></path><path d="M11.9338 14.6646C12.2752 14.6646 12.5531 14.4163 12.5531 14.1106C12.5531 13.8048 12.2752 13.5565 11.9338 13.5565C11.5924 13.5565 11.3145 13.8048 11.3145 14.1106C11.3145 14.4179 11.5924 14.6646 11.9338 14.6646Z" fill="white"></path><path d="M20.1835 13.5565C19.842 13.5565 19.5641 13.8048 19.5641 14.1106C19.5641 14.4163 19.8404 14.6646 20.1835 14.6646C20.5265 14.6646 20.8028 14.4163 20.8028 14.1106C20.8028 13.8048 20.5249 13.5565 20.1835 13.5565Z" fill="white"></path><path d="M40.0525 12.4127H42.3202V10.3578C42.3202 7.86382 43.7382 6.20166 46.5728 6.20166L47.9909 6.47946V8.97349L46.4315 8.69568C45.5803 8.69568 45.1563 9.24974 45.1563 10.0816V12.4142H47.9909V14.9082H45.1563V25.4368H42.3217V14.9082H40.0525V12.4127Z" fill="#FF2B85"></path><path d="M55.3449 12.1364C59.0307 12.1364 62.2908 14.9066 62.2908 18.9247C62.2908 22.9428 59.0307 25.713 55.3449 25.713C51.6592 25.713 48.399 22.9428 48.399 18.9247C48.399 14.9066 51.6592 12.1364 55.3449 12.1364ZM55.3449 23.219C58.0382 23.219 59.4562 21.279 59.4562 18.9247C59.4562 16.5688 58.0382 14.6304 55.3449 14.6304C52.6517 14.6304 51.2336 16.5703 51.2336 18.9247C51.2336 21.279 52.6517 23.219 55.3449 23.219Z" fill="#FF2B85"></path><path d="M70.4896 12.1364C74.1754 12.1364 77.4355 14.9066 77.4355 18.9247C77.4355 22.9428 74.1754 25.713 70.4896 25.713C66.8039 25.713 63.5437 22.9428 63.5437 18.9247C63.5437 14.9066 66.8039 12.1364 70.4896 12.1364ZM70.4896 23.219C73.1829 23.219 74.601 21.279 74.601 18.9247C74.601 16.5688 73.1829 14.6304 70.4896 14.6304C67.7964 14.6304 66.3783 16.5703 66.3783 18.9247C66.3783 21.279 67.7964 23.219 70.4896 23.219Z" fill="#FF2B85"></path><path d="M92.296 25.4353H89.7441L89.4599 24.3272L89.3185 24.189L89.1772 24.3272C88.3276 25.159 86.9095 25.7131 85.4915 25.7131C81.8057 25.7131 78.6869 22.9428 78.6869 18.9247C78.6869 14.9067 81.8057 12.1364 85.4915 12.1364C86.881 12.1364 88.326 12.6905 89.1772 13.5223L89.3185 13.6604L89.4599 13.5223V6.20166H92.2944V25.4353H92.296ZM85.6328 14.6304C82.9395 14.6304 81.4929 16.5704 81.4929 18.9247C81.4929 21.2791 82.9395 23.2191 85.6328 23.2191C88.0434 23.2191 89.7441 21.2791 89.7441 18.9247C89.7441 16.5688 88.0434 14.6304 85.6328 14.6304Z" fill="#FF2B85"></path><path d="M95.1385 12.4127H97.6905L97.9461 13.5208L98.116 13.6589L98.2574 13.5208C99.1085 12.6889 100.525 12.1349 101.943 12.1349C105.629 12.1349 108.748 14.9052 108.748 18.9232C108.748 22.9413 105.629 25.7116 101.943 25.7116C100.554 25.7116 99.1085 25.1575 98.2574 24.3256L98.116 24.1875L97.9461 24.3256V31.308H95.1401V12.4127H95.1385ZM101.802 23.2191C104.495 23.2191 105.913 21.2791 105.913 18.9248C105.913 16.5689 104.495 14.6305 101.802 14.6305C99.3912 14.6305 97.6905 16.5704 97.6905 18.9248C97.6905 21.2791 99.3912 23.2191 101.802 23.2191Z" fill="#FF2B85"></path><path d="M115.889 17.351H118.211V16.7768C118.211 15.2124 117.116 14.4814 115.595 14.4814C114.368 14.4814 113.54 15.0556 113.086 16.2289L110.552 15.7074C111.112 13.4897 113.061 12.082 115.622 12.082C119.198 12.082 120.986 13.8032 120.986 17.2718V25.4352H118.638L118.371 23.7141C117.437 24.9914 116.049 25.6447 114.207 25.6447C111.832 25.6447 110.07 24.2619 110.07 21.6546C110.07 18.9681 112.392 17.351 115.889 17.351ZM114.688 23.2454C115.622 23.2454 116.449 22.9583 117.143 22.384C117.864 21.7834 118.211 20.9748 118.211 19.9055V19.6184H115.783C114.074 19.6184 113.007 20.4006 113.007 21.6531C113.007 22.592 113.594 23.2454 114.688 23.2454Z" fill="#FF2B85"></path><path d="M123.602 12.4127H126.154L126.436 13.5208L126.578 13.6589L126.719 13.5208C127.286 12.6889 128.704 12.1349 129.838 12.1349C133.239 12.1349 135.224 14.3511 135.224 17.3992V25.4338H132.39V17.4007C132.304 15.6268 131.426 14.6305 129.555 14.6305C127.883 14.6305 126.494 15.9605 126.436 17.5668V25.4353H123.602V12.4127Z" fill="#FF2B85"></path><path d="M150.661 25.4353H148.109L147.827 24.3272L147.685 24.189L147.544 24.3272C146.693 25.159 145.276 25.7131 143.858 25.7131C140.173 25.7131 137.054 22.9428 137.054 18.9247C137.054 14.9067 140.173 12.1364 143.858 12.1364C145.248 12.1364 146.693 12.6905 147.544 13.5223L147.685 13.6604L147.827 13.5223V6.20166H150.661V25.4353ZM143.998 14.6304C141.305 14.6304 139.858 16.5704 139.858 18.9247C139.858 21.2791 141.305 23.2191 143.998 23.2191C146.409 23.2191 148.109 21.2791 148.109 18.9247C148.109 16.5688 146.409 14.6304 143.998 14.6304Z" fill="#FF2B85"></path><path d="M158.733 17.351H161.055V16.7768C161.055 15.2124 159.961 14.4814 158.439 14.4814C157.212 14.4814 156.384 15.0556 155.93 16.2289L153.396 15.7074C153.956 13.4897 155.905 12.082 158.466 12.082C162.042 12.082 163.831 13.8032 163.831 17.2718V25.4352H161.482L161.215 23.7141C160.281 24.9914 158.893 25.6447 157.051 25.6447C154.676 25.6447 152.915 24.2619 152.915 21.6546C152.915 18.9681 155.236 17.351 158.733 17.351ZM157.533 23.2454C158.466 23.2454 159.294 22.9583 159.988 22.384C160.709 21.7834 161.055 20.9748 161.055 19.9055V19.6184H158.627C156.918 19.6184 155.851 20.4006 155.851 21.6531C155.851 22.592 156.438 23.2454 157.533 23.2454Z" fill="#FF2B85"></path></svg> 