<svg width="179" height="35" viewBox="0 0 179 35" fill="none" xmlns="http://www.w3.org/2000/svg">
    <g clip-path="url(#clip0_3119_240)">
        <path d="M27.6012 35H7.39875C3.32987 35 0 31.6701 0 27.6012V7.39875C0 3.32987 3.32987 0 7.39875 0H27.603C31.6719 0 35.0017 3.32987 35.0017 7.39875V27.603C35.0017 31.6719 31.6719 35.0017 27.603 35.0017L27.6012 35Z" fill="#EE3284"/>
        <path d="M28.702 13.8577C28.702 13.8577 28.6968 13.8421 28.6933 13.8318C28.4891 13.4026 28.792 13.0841 28.792 13.0841C28.8647 12.9993 28.9322 12.911 28.9962 12.8193C29.7422 11.7774 29.9568 10.3704 29.5293 9.1156C29.4254 8.80927 28.6847 8.94599 28.5116 8.66562C28.4372 8.54447 28.4666 8.3489 28.5047 8.14468C28.5168 8.08929 28.5272 8.03391 28.5359 7.97853C28.5739 7.76219 28.5947 7.55797 28.4839 7.44893C28.3732 7.34163 28.2572 7.23952 28.1326 7.1426L28.0582 7.08375C27.2413 6.46589 26.2081 6.18033 25.18 6.23052C24.2818 6.27552 23.3264 6.56801 22.6428 7.17548C22.6428 7.17548 22.1461 7.56662 21.4902 7.35374C21.4729 7.34855 21.4538 7.34336 21.4365 7.33817C20.7408 7.0976 20.0277 6.90549 19.2974 6.793C18.7037 6.703 18.1032 6.65627 17.5026 6.65627C16.1146 6.65627 14.7802 6.89857 13.5341 7.33817C13.5151 7.34336 13.4978 7.34855 13.4787 7.35374C12.8072 7.57008 12.3728 7.1824 12.3728 7.1824C11.0834 6.0436 8.49605 5.76496 6.80342 7.19452C4.95157 8.75734 4.84946 11.4815 6.21671 13.0858C6.21671 13.0858 6.51786 13.4043 6.31536 13.8335C5.51578 15.4759 5.0658 17.2949 5.0658 19.1693C5.0658 25.7788 10.6352 30.5902 17.5061 30.5902C24.377 30.5902 29.9464 25.7788 29.9464 19.1693C29.9464 17.3018 29.4999 15.4932 28.7089 13.856L28.702 13.8577ZM17.4161 18.56C18.4026 18.56 19.2022 18.7747 19.2022 19.1554C19.2022 19.5362 18.4026 20.3963 17.4161 20.3963C16.4296 20.3963 15.63 19.5362 15.63 19.1554C15.63 18.7747 16.4296 18.56 17.4161 18.56ZM7.42994 11.5957C7.36763 11.5524 7.31917 11.4936 7.27763 11.4313C7.26033 11.4036 7.24302 11.3759 7.22744 11.3465C6.92803 10.8065 6.85707 10.1436 7.0336 9.55347C7.38494 8.38005 8.62758 7.69642 9.81311 7.85219C10.1246 7.89372 10.4275 7.98891 10.7027 8.14294C10.8152 8.20525 10.919 8.28486 11.009 8.37659C11.0436 8.41293 11.0783 8.45274 11.0904 8.5012C11.1094 8.57216 11.0783 8.65004 11.0281 8.70542C10.9796 8.76081 10.9138 8.79888 10.8498 8.83523C9.71619 9.50155 8.78681 10.4552 7.93011 11.4399C7.79165 11.5992 7.64281 11.7445 7.42994 11.5974V11.5957ZM10.4639 20.9934C9.43409 20.8757 8.53932 19.7871 8.2001 18.6933C8.05126 18.2104 7.693 15.9882 9.28871 14.3804C9.81831 13.8456 10.5625 13.3783 11.6027 13.0668C11.6027 13.0668 12.0544 12.9439 12.6307 12.9387C13.1447 12.9335 13.7591 13.0235 14.2454 13.3783C15.2752 14.1329 15.2891 15.405 14.6798 16.0557C14.0706 16.7065 12.6878 18.2001 12.3347 19.4219C11.9834 20.6438 11.4954 21.1111 10.4639 20.9951V20.9934ZM17.4299 24.666C17.4299 24.666 17.4196 24.666 17.4144 24.666H17.3988C15.4154 24.6539 13.8128 23.252 13.8128 21.8449C13.8128 21.3586 14.0256 21.1076 14.5552 21.2409C14.8616 21.3171 16.1198 21.6355 17.2673 21.6407H17.4178C17.4403 21.6407 17.5095 21.6407 17.5615 21.6407C18.7072 21.6355 19.9671 21.3171 20.2735 21.2409C20.8031 21.1094 21.016 21.3586 21.016 21.8449C21.016 23.252 19.4133 24.6538 17.4299 24.6642V24.666ZM26.6304 18.6795C26.2929 19.775 25.3981 20.8636 24.3666 20.9796C23.3368 21.0973 22.8488 20.6282 22.4957 19.4064C22.1444 18.1845 20.7615 16.6892 20.1506 16.0401C19.5414 15.3911 19.5535 14.1173 20.585 13.3627C21.0713 13.008 21.684 12.918 22.1998 12.9231C22.7778 12.9283 23.2278 13.0512 23.2278 13.0512C24.2662 13.3645 25.0121 13.8318 25.5417 14.3648C27.1357 15.9744 26.7792 18.1949 26.6304 18.6777V18.6795ZM27.7726 11.3465C27.757 11.3759 27.7397 11.4036 27.7224 11.4313C27.6809 11.4953 27.6324 11.5524 27.5701 11.5957C27.3572 11.7445 27.2067 11.5957 27.07 11.4382C26.2133 10.4534 25.2839 9.49982 24.1503 8.8335C24.0862 8.79542 24.0205 8.75908 23.972 8.70369C23.9235 8.64831 23.8906 8.57043 23.9097 8.49947C23.9218 8.45101 23.9564 8.4112 23.991 8.37486C24.081 8.28313 24.1849 8.20352 24.2974 8.14121C24.5725 7.98891 24.8771 7.89199 25.1869 7.85046C26.3725 7.69296 27.6151 8.37832 27.9665 9.55174C28.1447 10.1436 28.072 10.8048 27.7726 11.3447V11.3465Z" fill="white"/>
        <path d="M13.0044 16.3534C13.3765 16.3534 13.6794 16.0765 13.6794 15.7355C13.6794 15.3946 13.3765 15.1177 13.0044 15.1177C12.6323 15.1177 12.3295 15.3946 12.3295 15.7355C12.3295 16.0765 12.6323 16.3534 13.0044 16.3534Z" fill="white"/>
        <path d="M21.9955 15.116C21.6234 15.116 21.3206 15.3929 21.3206 15.7338C21.3206 16.0748 21.6217 16.3517 21.9955 16.3517C22.3694 16.3517 22.6705 16.0748 22.6705 15.7338C22.6705 15.3929 22.3694 15.116 21.9955 15.116Z" fill="white"/>
        <path d="M43.6517 13.8422H46.1232V11.5507C46.1232 8.76948 47.6687 6.91589 50.758 6.91589L52.3035 7.22569V10.0069L50.604 9.69713C49.6763 9.69713 49.2142 10.315 49.2142 11.2427V13.8439H52.3035V16.6251H49.2142V28.3662H46.1249V16.6251H43.6535V13.8439L43.6517 13.8422Z" fill="#EE3284"/>
        <path d="M60.3167 13.5324C64.3336 13.5324 67.8868 16.6217 67.8868 21.1025C67.8868 25.5833 64.3336 28.6726 60.3167 28.6726C56.2997 28.6726 52.7466 25.5833 52.7466 21.1025C52.7466 16.6217 56.2997 13.5324 60.3167 13.5324ZM60.3167 25.8913C63.252 25.8913 64.7975 23.7279 64.7975 21.1025C64.7975 18.477 63.252 16.3136 60.3167 16.3136C57.3814 16.3136 55.8359 18.477 55.8359 21.1025C55.8359 23.7279 57.3814 25.8913 60.3167 25.8913Z" fill="#EE3284"/>
        <path d="M76.8224 13.5324C80.8394 13.5324 84.3925 16.6217 84.3925 21.1025C84.3925 25.5833 80.8394 28.6726 76.8224 28.6726C72.8055 28.6726 69.2523 25.5833 69.2523 21.1025C69.2523 16.6217 72.8055 13.5324 76.8224 13.5324ZM76.8224 25.8913C79.7577 25.8913 81.3032 23.7279 81.3032 21.1025C81.3032 18.477 79.7577 16.3136 76.8224 16.3136C73.8871 16.3136 72.3416 18.477 72.3416 21.1025C72.3416 23.7279 73.8871 25.8913 76.8224 25.8913Z" fill="#EE3284"/>
        <path d="M100.588 28.3628H97.8072L97.4974 27.127L97.3434 26.973L97.1894 27.127C96.2634 28.0547 94.7179 28.6726 93.1724 28.6726C89.1554 28.6726 85.7563 25.5833 85.7563 21.1025C85.7563 16.6217 89.1554 13.5324 93.1724 13.5324C94.6868 13.5324 96.2617 14.1502 97.1894 15.0779L97.3434 15.2319L97.4974 15.0779V6.91589H100.587V28.3645L100.588 28.3628ZM93.3282 16.3119C90.3929 16.3119 88.8162 18.4753 88.8162 21.1007C88.8162 23.7262 90.3929 25.8896 93.3282 25.8896C95.9554 25.8896 97.809 23.7262 97.809 21.1007C97.809 18.4753 95.9554 16.3119 93.3282 16.3119Z" fill="#EE3284"/>
        <path d="M103.686 13.8422H106.468L106.746 15.0779L106.931 15.2319L107.086 15.0779C108.013 14.1502 109.557 13.5324 111.102 13.5324C115.119 13.5324 118.519 16.6217 118.519 21.1025C118.519 25.5833 115.119 28.6726 111.102 28.6726C109.588 28.6726 108.013 28.0547 107.086 27.127L106.931 26.973L106.746 27.127V34.9135H103.688V13.8404L103.686 13.8422ZM110.948 25.8931C113.884 25.8931 115.429 23.7297 115.429 21.1042C115.429 18.4787 113.884 16.3153 110.948 16.3153C108.321 16.3153 106.468 18.4787 106.468 21.1042C106.468 23.7297 108.321 25.8931 110.948 25.8931Z" fill="#EE3284"/>
        <path d="M126.302 19.3475H128.832V18.7071C128.832 16.9626 127.639 16.1474 125.981 16.1474C124.643 16.1474 123.742 16.7878 123.247 18.0962L120.485 17.5147C121.096 15.0415 123.219 13.4718 126.011 13.4718C129.908 13.4718 131.857 15.3911 131.857 19.2592V28.3627H129.297L129.007 26.4434C127.989 27.8678 126.476 28.5964 124.469 28.5964C121.88 28.5964 119.96 27.0543 119.96 24.1467C119.96 21.2392 122.49 19.3475 126.302 19.3475ZM124.993 25.9207C126.011 25.9207 126.912 25.6005 127.669 24.9602C128.454 24.2904 128.832 23.3887 128.832 22.1962V21.8761H126.186C124.323 21.8761 123.16 22.7483 123.16 24.145C123.16 25.1921 123.801 25.919 124.993 25.919V25.9207Z" fill="#EE3284"/>
        <path d="M134.708 13.8422H137.489L137.797 15.0779L137.951 15.2319L138.105 15.0779C138.723 14.1502 140.268 13.5324 141.504 13.5324C145.211 13.5324 147.375 16.0038 147.375 19.4029V28.3628H144.285V19.4029C144.192 17.4247 143.235 16.3136 141.196 16.3136C139.373 16.3136 137.859 17.7968 137.797 19.5881V28.3628H134.708V13.8404V13.8422Z" fill="#EE3284"/>
        <path d="M164.199 28.3628H161.417L161.109 27.127L160.955 26.973L160.801 27.127C159.874 28.0547 158.33 28.6726 156.784 28.6726C152.767 28.6726 149.368 25.5833 149.368 21.1025C149.368 16.6217 152.767 13.5324 156.784 13.5324C158.299 13.5324 159.874 14.1502 160.801 15.0779L160.955 15.2319L161.109 15.0779V6.91589H164.199V28.3645V28.3628ZM156.937 16.3119C154.001 16.3119 152.425 18.4753 152.425 21.1007C152.425 23.7262 154.001 25.8896 156.937 25.8896C159.564 25.8896 161.417 23.7262 161.417 21.1007C161.417 18.4753 159.564 16.3119 156.937 16.3119Z" fill="#EE3284"/>
        <path d="M172.996 19.3475H175.526V18.7071C175.526 16.9626 174.334 16.1474 172.676 16.1474C171.338 16.1474 170.436 16.7878 169.941 18.0962L167.179 17.5147C167.79 15.0415 169.913 13.4718 172.705 13.4718C176.603 13.4718 178.551 15.3911 178.551 19.2592V28.3627H175.992L175.701 26.4434C174.683 27.8678 173.171 28.5964 171.163 28.5964C168.574 28.5964 166.655 27.0543 166.655 24.1467C166.655 21.2392 169.185 19.3475 172.996 19.3475ZM171.687 25.9207C172.705 25.9207 173.607 25.6005 174.363 24.9602C175.149 24.2904 175.526 23.3887 175.526 22.1962V21.8761H172.88C171.018 21.8761 169.855 22.7483 169.855 24.145C169.855 25.1921 170.495 25.919 171.687 25.919V25.9207Z" fill="#EE3284"/>
    </g>
    <defs>
        <clipPath id="clip0_3119_240">
            <rect width="178.551" height="35" fill="white"/>
        </clipPath>
    </defs>
</svg>
